<svg xmlns="http://www.w3.org/2000/svg" viewBox="0 0 500 500"><g id="freepik--speech-bubbles--inject-13"><path d="M152.68,143.22l-67.55-.05a2.55,2.55,0,0,0-2.55,2.55l0,47.3a2.55,2.55,0,0,0,2.55,2.55l29.47,0c2.4,4.9,8,12.5,20.47,16.78,0,0-8.08-7.82-10.43-16.78l28,0a2.54,2.54,0,0,0,2.55-2.55l0-47.3A2.55,2.55,0,0,0,152.68,143.22Z" style="fill:#407BFF"></path><path d="M152.68,143.22l-67.55-.05a2.55,2.55,0,0,0-2.55,2.55l0,47.3a2.55,2.55,0,0,0,2.55,2.55l29.47,0c2.4,4.9,8,12.5,20.47,16.78,0,0-8.08-7.82-10.43-16.78l28,0a2.54,2.54,0,0,0,2.55-2.55l0-47.3A2.55,2.55,0,0,0,152.68,143.22Z" style="fill:#fff;opacity:0.7000000000000001"></path><path d="M98.45,161.64V175.2H95.84V163.92H93v-2.28Z" style="fill:#407BFF"></path><path d="M112,169.78h-3.37v3.33H107v-3.33h-3.35V168H107V164.7h1.64V168H112Z" style="fill:#407BFF"></path><path d="M120.1,161.64V175.2h-2.61V163.92h-2.82v-2.28Z" style="fill:#407BFF"></path><path d="M133.66,166v1.74H125.3V166Zm0,4.11v1.72H125.3V170.1Z" style="fill:#407BFF"></path><path d="M142,165.37c0-1-.82-1.58-2.17-1.58a6.13,6.13,0,0,0-3.8,1.7l-1-2a8.48,8.48,0,0,1,5.21-2c2.67,0,4.51,1.36,4.51,3.47,0,1.39-1.07,2.92-2.58,4.47l-3.48,3.46h6.66v2.28H135.29v-1.87l5.11-5.27A4.65,4.65,0,0,0,142,165.37Z" style="fill:#407BFF"></path><path d="M252,85.34a2.55,2.55,0,0,0-2.56-2.54L174,83.22a2.55,2.55,0,0,0-2.54,2.56l.24,43.75a2.56,2.56,0,0,0,2.57,2.54l40.54-.23c-.7,9.2-8.73,18.28-8.73,18.28,12.36-5.34,16.75-13.76,18.27-18.33l25.45-.14a2.55,2.55,0,0,0,2.53-2.56Z" style="fill:#407BFF"></path><path d="M252,85.34a2.55,2.55,0,0,0-2.56-2.54L174,83.22a2.55,2.55,0,0,0-2.54,2.56l.24,43.75a2.56,2.56,0,0,0,2.57,2.54l40.54-.23c-.7,9.2-8.73,18.28-8.73,18.28,12.36-5.34,16.75-13.76,18.27-18.33l25.45-.14a2.55,2.55,0,0,0,2.53-2.56Z" style="fill:#fff;opacity:0.7000000000000001"></path><path d="M190.92,101.93l2.15,3.37,2.21-3.37h2.77l-3.29,5,3.52,5.3h-2.9l-2.31-3.62-2.49,3.62h-2.81l3.62-5.3-3.37-5Z" style="fill:#407BFF"></path><path d="M207.59,106.86h-3.36v3.33h-1.65v-3.33h-3.35v-1.74h3.35v-3.35h1.65v3.35h3.36Z" style="fill:#407BFF"></path><path d="M210.73,116.15a3.87,3.87,0,0,1-2.57-.92l1.08-1.92a2.11,2.11,0,0,0,1.34.52,1.59,1.59,0,0,0,1.51-1l.31-.68-4.28-10.18h2.61l3,7.53,2.69-7.53h2.53l-4.64,11.65A3.59,3.59,0,0,1,210.73,116.15Z" style="fill:#407BFF"></path><path d="M227.83,103.07v1.74h-8.36v-1.74Zm0,4.1v1.73h-8.36v-1.73Z" style="fill:#407BFF"></path><path d="M235.93,98.72v13.56h-2.62V101h-2.82V98.72Z" style="fill:#407BFF"></path><path d="M384,128.57a2.54,2.54,0,0,0-2.56-2.54l-99.85.59a2.56,2.56,0,0,0-2.54,2.57l.19,30.76a2.54,2.54,0,0,0,2.56,2.54l8.15-.05c0,12.51-11.41,25.46-11.41,25.46,17.74-7.67,22.85-20.23,24.26-25.54l78.85-.46a2.55,2.55,0,0,0,2.53-2.57Z" style="fill:#407BFF"></path><path d="M381.41,126l-99.85.59a2.55,2.55,0,0,0-2.53,2.57l.18,30.76a2.54,2.54,0,0,0,2.56,2.54l8.15-.05c0,12.51-11.41,25.46-11.41,25.46,17.74-7.67,22.85-20.23,24.27-25.54l78.84-.46a2.55,2.55,0,0,0,2.53-2.57L384,128.57A2.54,2.54,0,0,0,381.41,126Z" style="fill:#fff;opacity:0.7000000000000001"></path><path d="M313.71,145.9h-7.65a2.89,2.89,0,0,0,3,2.37,3.84,3.84,0,0,0,2.79-1.17l1.35,1.42a5.74,5.74,0,0,1-4.35,1.78,5.27,5.27,0,1,1-.06-10.53C312.39,139.77,314,142.15,313.71,145.9Zm-2.29-1.68a2.46,2.46,0,0,0-2.65-2.5,2.72,2.72,0,0,0-2.77,2.5Z" style="fill:#407BFF"></path><path d="M323.37,141v1.74H315V141Zm0,4.1v1.72H315v-1.72Z" style="fill:#407BFF"></path><path d="M342.94,143.74v6.46h-2.53v-5.73a2.14,2.14,0,0,0-2.27-2.36,2.72,2.72,0,0,0-2.61,3v5.11H333v-5.73a2.12,2.12,0,0,0-2.24-2.36,2.71,2.71,0,0,0-2.63,3v5.11H325.6V139.85h2.52v1.91a3.83,3.83,0,0,1,3.64-2,3.44,3.44,0,0,1,3.56,2.48,3.84,3.84,0,0,1,3.85-2.48C341.51,139.75,342.94,141.28,342.94,143.74Z" style="fill:#407BFF"></path><path d="M350.17,142a3.09,3.09,0,0,0,0,6.16,3.35,3.35,0,0,0,2.79-1.22l1.57,1.3A5.21,5.21,0,0,1,350,150.3a5.27,5.27,0,0,1,0-10.53,5.25,5.25,0,0,1,4.33,1.9l-1.53,1.45A3.54,3.54,0,0,0,350.17,142Z" style="fill:#407BFF"></path><path d="M359.72,140.53c0-.52-.42-.81-1.14-.81a3.81,3.81,0,0,0-2.27,1l-.71-1.33a5.47,5.47,0,0,1,3.25-1.18c1.63,0,2.77.81,2.77,2.07a4.1,4.1,0,0,1-1.55,2.65l-2,1.92h3.82v1.45h-6.12v-1.22l3-3.06A2.59,2.59,0,0,0,359.72,140.53Z" style="fill:#407BFF"></path></g></svg>